<svg width="1800" height="789" viewBox="0 0 1800 789" fill="none" xmlns="http://www.w3.org/2000/svg">
<mask id="mask0_2044_556" style="mask-type:alpha" maskUnits="userSpaceOnUse" x="0" y="0" width="1800" height="789">
<path d="M0 0H1800V789H0V0Z" fill="#D9D9D9"/>
</mask>
<g mask="url(#mask0_2044_556)">
<path d="M1022.22 507.941C1022.22 508.671 1022.66 509.369 1023.57 509.89L1241.1 635.561C1243.1 636.712 1246.57 636.567 1248.87 635.238L1500.06 490.127C1501.32 489.4 1501.97 488.47 1501.97 487.587M1426.49 487.646C1425.73 486.01 1424.26 484.507 1422.06 483.291C1415.03 479.401 1402.93 479.902 1394.85 484.42C1391.55 486.268 1389.38 488.504 1388.39 490.792M1252.99 412.571C1253.98 410.285 1256.15 408.049 1259.45 406.2C1267.53 401.683 1279.63 401.18 1286.66 405.072C1288.86 406.289 1290.33 407.79 1291.09 409.425" stroke="white" stroke-width="2" stroke-miterlimit="10"/>
<path d="M1252.99 412.571C1253.98 410.285 1256.15 408.049 1259.45 406.2C1267.53 401.683 1279.63 401.18 1286.66 405.072C1288.86 406.289 1290.33 407.79 1291.09 409.425" stroke="white" stroke-width="2" stroke-miterlimit="10"/>
<path d="M1426.49 487.646C1425.73 486.009 1424.26 484.507 1422.06 483.291C1415.03 479.401 1402.93 479.902 1394.85 484.42C1391.55 486.268 1389.38 488.504 1388.39 490.791" stroke="white" stroke-width="2" stroke-miterlimit="10"/>
<path d="M1500.62 480.039L1283.08 354.368C1281.09 353.218 1277.61 353.363 1275.31 354.691L1024.13 499.803C1021.83 501.131 1021.58 503.141 1023.57 504.292L1241.1 629.962C1243.1 631.113 1246.57 630.968 1248.87 629.64L1500.06 484.528C1502.36 483.2 1502.61 481.19 1500.62 480.039H1500.62ZM1284.63 415.797C1276.56 420.314 1264.45 420.816 1257.43 416.926C1249.97 412.798 1250.89 405.395 1259.45 400.602C1267.53 396.085 1279.63 395.583 1286.66 399.473C1294.12 403.601 1293.2 411.004 1284.63 415.797ZM1420.03 494.016C1411.96 498.533 1399.85 499.035 1392.82 495.145C1385.37 491.017 1386.29 483.614 1394.85 478.821C1402.93 474.304 1415.03 473.803 1422.06 477.692C1429.52 481.82 1428.6 489.223 1420.03 494.016Z" stroke="white" stroke-width="2" stroke-miterlimit="10"/>
<path d="M1286.66 399.472C1279.63 395.581 1267.53 396.084 1259.45 400.601C1250.89 405.394 1249.96 412.797 1257.42 416.925C1264.45 420.816 1276.55 420.313 1284.63 415.796C1293.19 411.003 1294.12 403.6 1286.66 399.472Z" stroke="white" stroke-width="2" stroke-miterlimit="10"/>
<path d="M1422.06 477.693C1415.03 473.801 1402.93 474.304 1394.85 478.822C1386.29 483.615 1385.37 491.017 1392.82 495.145C1399.85 499.037 1411.95 498.534 1420.03 494.016C1428.6 489.223 1429.52 481.821 1422.06 477.693Z" stroke="white" stroke-width="2" stroke-miterlimit="10"/>
<path d="M1022.22 507.941V502.343" stroke="white" stroke-width="2" stroke-miterlimit="10"/>
<path d="M1501.97 487.587V481.989" stroke="white" stroke-width="2" stroke-miterlimit="10"/>
<path d="M479.642 822.528C479.642 823.258 480.084 823.955 480.986 824.477L698.523 950.148C700.515 951.298 703.993 951.154 706.293 949.825L957.483 804.714C958.741 803.986 959.385 803.057 959.385 802.174M883.905 802.233C883.146 800.597 881.675 799.094 879.478 797.878C872.448 793.988 860.347 794.489 852.273 799.007C848.968 800.855 846.802 803.091 845.813 805.379M710.414 727.158C711.402 724.872 713.57 722.636 716.872 720.787C724.948 716.27 737.047 715.767 744.077 719.658C746.276 720.876 747.746 722.377 748.507 724.012" stroke="white" stroke-width="2" stroke-miterlimit="10"/>
<path d="M710.414 727.158C711.402 724.872 713.57 722.636 716.872 720.787C724.948 716.27 737.047 715.767 744.077 719.658C746.276 720.876 747.746 722.377 748.507 724.012" stroke="white" stroke-width="2" stroke-miterlimit="10"/>
<path d="M958.04 794.627L740.504 668.956C738.512 667.806 735.033 667.95 732.733 669.279L481.545 814.39C479.245 815.719 478.996 817.729 480.986 818.88L698.523 944.55C700.515 945.701 703.993 945.556 706.293 944.228L957.482 799.116C959.782 797.788 960.031 795.778 958.039 794.627H958.04ZM742.049 730.385C733.975 734.902 721.874 735.404 714.845 731.514C707.386 727.386 708.305 719.983 716.874 715.19C724.948 710.673 737.049 710.171 744.078 714.061C751.537 718.189 750.618 725.592 742.049 730.385ZM877.448 808.604C869.375 813.121 857.273 813.623 850.244 809.733C842.785 805.605 843.705 798.202 852.273 793.409C860.347 788.892 872.448 788.391 879.478 792.28C886.937 796.408 886.017 803.811 877.448 808.604Z" stroke="white" stroke-width="2" stroke-miterlimit="10"/>
<path d="M744.077 714.06C737.048 710.168 724.946 710.671 716.873 715.189C708.306 719.982 707.384 727.384 714.843 731.512C721.873 735.404 733.974 734.901 742.048 730.384C750.615 725.591 751.536 718.188 744.077 714.06Z" stroke="white" stroke-width="2" stroke-miterlimit="10"/>
<path d="M879.478 792.281C872.448 788.389 860.349 788.892 852.274 793.409C843.706 798.202 842.785 805.605 850.244 809.733C857.274 813.625 869.375 813.122 877.449 808.604C886.016 803.811 886.937 796.409 879.478 792.281Z" stroke="white" stroke-width="2" stroke-miterlimit="10"/>
<path d="M1291.09 347.626C1291.09 348.357 1291.53 349.054 1292.44 349.576L1509.97 475.246C1511.97 476.397 1515.44 476.252 1517.74 474.924L1768.93 329.812C1770.19 329.085 1770.84 328.155 1770.84 327.273M1695.36 327.332C1694.6 325.695 1693.13 324.192 1690.93 322.976C1683.9 319.087 1671.8 319.588 1663.72 324.105C1660.42 325.954 1658.25 328.19 1657.26 330.477M1521.87 252.256C1522.85 249.97 1525.02 247.734 1528.32 245.886C1536.4 241.369 1548.5 240.866 1555.53 244.757C1557.73 245.975 1559.2 247.476 1559.96 249.111" stroke="white" stroke-width="2" stroke-miterlimit="10"/>
<path d="M1521.87 252.256C1522.85 249.97 1525.02 247.734 1528.32 245.886C1536.4 241.369 1548.5 240.866 1555.53 244.757C1557.73 245.975 1559.2 247.476 1559.96 249.111" stroke="white" stroke-width="2" stroke-miterlimit="10"/>
<path d="M1695.36 327.332C1694.6 325.695 1693.13 324.192 1690.93 322.976C1683.9 319.086 1671.8 319.588 1663.72 324.105C1660.42 325.953 1658.25 328.19 1657.26 330.477" stroke="white" stroke-width="2" stroke-miterlimit="10"/>
<path d="M1769.49 319.725L1551.96 194.054C1549.96 192.903 1546.48 193.048 1544.18 194.376L1293 339.488C1290.7 340.816 1290.45 342.827 1292.44 343.977L1509.97 469.648C1511.97 470.799 1515.44 470.654 1517.74 469.326L1768.93 324.214C1771.23 322.886 1771.48 320.875 1769.49 319.725H1769.49ZM1553.5 255.482C1545.43 260 1533.33 260.501 1526.3 256.611C1518.84 252.483 1519.76 245.081 1528.33 240.288C1536.4 235.77 1548.5 235.269 1555.53 239.159C1562.99 243.287 1562.07 250.69 1553.5 255.482ZM1688.9 333.702C1680.83 338.219 1668.72 338.72 1661.7 334.831C1654.24 330.703 1655.16 323.3 1663.72 318.507C1671.8 313.99 1683.9 313.488 1690.93 317.378C1698.39 321.506 1697.47 328.909 1688.9 333.702Z" stroke="white" stroke-width="2" stroke-miterlimit="10"/>
<path d="M1555.53 239.157C1548.5 235.266 1536.4 235.769 1528.32 240.286C1519.76 245.079 1518.84 252.482 1526.29 256.61C1533.32 260.501 1545.43 259.999 1553.5 255.481C1562.07 250.688 1562.99 243.286 1555.53 239.157Z" stroke="white" stroke-width="2" stroke-miterlimit="10"/>
<path d="M1690.93 317.377C1683.9 313.486 1671.8 313.989 1663.72 318.506C1655.16 323.299 1654.24 330.702 1661.7 334.83C1668.72 338.721 1680.83 338.218 1688.9 333.701C1697.47 328.908 1698.39 321.505 1690.93 317.377Z" stroke="white" stroke-width="2" stroke-miterlimit="10"/>
<path d="M1291.09 347.626V342.028" stroke="white" stroke-width="2" stroke-miterlimit="10"/>
<path d="M1770.84 327.272V321.674" stroke="white" stroke-width="2" stroke-miterlimit="10"/>
<path d="M1560.66 191.704C1560.66 192.435 1561.1 193.132 1562.01 193.654L1779.54 319.325C1781.54 320.475 1785.01 320.33 1787.31 319.002L2038.5 173.89C2039.76 173.163 2040.41 172.234 2040.41 171.351M1964.93 171.41C1964.17 169.773 1962.7 168.271 1960.5 167.054C1953.47 163.165 1941.37 163.666 1933.29 168.183C1929.99 170.032 1927.82 172.268 1926.83 174.555M1791.43 96.3345C1792.42 94.0486 1794.59 91.8125 1797.89 89.9642C1805.97 85.4468 1818.07 84.9439 1825.1 88.8352C1827.3 90.0529 1828.77 91.554 1829.53 93.189" stroke="white" stroke-width="2" stroke-miterlimit="10"/>
<path d="M1791.43 96.3345C1792.42 94.0486 1794.59 91.8125 1797.89 89.9642C1805.97 85.4468 1818.07 84.9439 1825.1 88.8352C1827.3 90.0529 1828.77 91.554 1829.53 93.189" stroke="white" stroke-width="2" stroke-miterlimit="10"/>
<path d="M2039.06 163.803L1821.52 38.1322C1819.53 36.9814 1816.05 37.1262 1813.75 38.4545L1562.57 183.566C1560.27 184.894 1560.02 186.905 1562.01 188.056L1779.54 313.726C1781.54 314.877 1785.01 314.732 1787.31 313.404L2038.5 168.292C2040.8 166.964 2041.05 164.953 2039.06 163.803H2039.06ZM1823.07 99.5606C1815 104.078 1802.89 104.579 1795.87 100.69C1788.41 96.5615 1789.33 89.1587 1797.89 84.3658C1805.97 79.8485 1818.07 79.3471 1825.1 83.2369C1832.56 87.3649 1831.64 94.7676 1823.07 99.5606ZM1958.47 177.78C1950.4 182.297 1938.29 182.799 1931.26 178.909C1923.81 174.781 1924.73 167.378 1933.29 162.585C1941.37 158.068 1953.47 157.566 1960.5 161.456C1967.96 165.584 1967.04 172.987 1958.47 177.78Z" stroke="white" stroke-width="2" stroke-miterlimit="10"/>
<path d="M1825.1 83.2356C1818.07 79.3443 1805.97 79.8472 1797.89 84.3646C1789.33 89.1575 1788.4 96.5602 1795.86 100.688C1802.89 104.58 1814.99 104.077 1823.07 99.5593C1831.63 94.7664 1832.56 87.3636 1825.1 83.2356Z" stroke="white" stroke-width="2" stroke-miterlimit="10"/>
<path d="M1560.66 191.704V186.106" stroke="white" stroke-width="2" stroke-miterlimit="10"/>
<path d="M748.513 662.215C748.513 662.945 748.955 663.643 749.858 664.165L967.394 789.835C969.386 790.986 972.864 790.841 975.164 789.513L1226.35 644.401C1227.61 643.674 1228.26 642.744 1228.26 641.861M1152.78 641.921C1152.02 640.284 1150.55 638.781 1148.35 637.565C1141.32 633.675 1129.22 634.177 1121.14 638.694C1117.84 640.543 1115.67 642.779 1114.68 645.066M979.285 566.845C980.274 564.559 982.441 562.323 985.744 560.475C993.819 555.958 1005.92 555.455 1012.95 559.346C1015.15 560.564 1016.62 562.065 1017.38 563.7" stroke="white" stroke-width="2" stroke-miterlimit="10"/>
<path d="M979.285 566.845C980.274 564.559 982.441 562.323 985.744 560.475C993.819 555.958 1005.92 555.455 1012.95 559.346C1015.15 560.564 1016.62 562.065 1017.38 563.7" stroke="white" stroke-width="2" stroke-miterlimit="10"/>
<path d="M1152.78 641.92C1152.02 640.284 1150.55 638.781 1148.35 637.565C1141.32 633.675 1129.22 634.177 1121.14 638.694C1117.84 640.542 1115.67 642.778 1114.68 645.066" stroke="white" stroke-width="2" stroke-miterlimit="10"/>
<path d="M1226.91 634.313L1009.38 508.643C1007.38 507.492 1003.9 507.637 1001.6 508.965L750.416 654.077C748.116 655.405 747.867 657.416 749.858 658.566L967.394 784.237C969.386 785.388 972.865 785.243 975.165 783.915L1226.35 638.803C1228.65 637.475 1228.9 635.464 1226.91 634.313H1226.91ZM1010.92 570.071C1002.85 574.589 990.746 575.09 983.716 571.2C976.257 567.072 977.177 559.669 985.745 554.877C993.819 550.359 1005.92 549.858 1012.95 553.748C1020.41 557.876 1019.49 565.278 1010.92 570.071ZM1146.32 648.291C1138.25 652.808 1126.14 653.309 1119.12 649.42C1111.66 645.291 1112.58 637.889 1121.14 633.096C1129.22 628.578 1141.32 628.077 1148.35 631.967C1155.81 636.095 1154.89 643.498 1146.32 648.291Z" stroke="white" stroke-width="2" stroke-miterlimit="10"/>
<path d="M1012.95 553.746C1005.92 549.855 993.817 550.358 985.744 554.875C977.177 559.668 976.255 567.071 983.714 571.199C990.744 575.09 1002.85 574.587 1010.92 570.07C1019.49 565.277 1020.41 557.874 1012.95 553.746Z" stroke="white" stroke-width="2" stroke-miterlimit="10"/>
<path d="M1148.35 631.967C1141.32 628.076 1129.22 628.579 1121.14 633.096C1112.58 637.889 1111.66 645.292 1119.12 649.42C1126.14 653.311 1138.25 652.808 1146.32 648.291C1154.89 643.498 1155.81 636.095 1148.35 631.967Z" stroke="white" stroke-width="2" stroke-miterlimit="10"/>
<path d="M748.513 662.215V656.617" stroke="white" stroke-width="2" stroke-miterlimit="10"/>
<path d="M1228.26 641.862V636.264" stroke="white" stroke-width="2" stroke-miterlimit="10"/>
<path d="M1259.8 643.548C1259.8 644.278 1260.24 644.976 1261.14 645.498L1478.68 771.168C1480.67 772.319 1484.15 772.174 1486.45 770.846L1737.64 625.734C1738.9 625.007 1739.54 624.077 1739.54 623.194M1664.06 623.254C1663.3 621.617 1661.83 620.114 1659.63 618.898C1652.61 615.008 1640.5 615.51 1632.43 620.027C1629.12 621.876 1626.96 624.112 1625.97 626.399M1490.57 548.178C1491.56 545.892 1493.73 543.656 1497.03 541.808C1505.1 537.291 1517.2 536.788 1524.23 540.679C1526.43 541.897 1527.9 543.398 1528.66 545.033" stroke="white" stroke-width="2" stroke-miterlimit="10"/>
<path d="M1490.57 548.178C1491.56 545.892 1493.73 543.656 1497.03 541.808C1505.1 537.291 1517.2 536.788 1524.23 540.679C1526.43 541.897 1527.9 543.398 1528.66 545.033" stroke="white" stroke-width="2" stroke-miterlimit="10"/>
<path d="M1664.06 623.253C1663.3 621.617 1661.83 620.114 1659.63 618.898C1652.61 615.008 1640.5 615.51 1632.43 620.027C1629.12 621.875 1626.96 624.111 1625.97 626.399" stroke="white" stroke-width="2" stroke-miterlimit="10"/>
<path d="M1738.2 615.647L1520.66 489.976C1518.67 488.825 1515.19 488.97 1512.89 490.298L1261.7 635.41C1259.4 636.738 1259.15 638.749 1261.14 639.899L1478.68 765.57C1480.67 766.721 1484.15 766.576 1486.45 765.248L1737.64 620.136C1739.94 618.808 1740.19 616.797 1738.2 615.647H1738.2ZM1522.21 551.404C1514.13 555.922 1502.03 556.423 1495 552.533C1487.54 548.405 1488.46 541.002 1497.03 536.21C1505.1 531.692 1517.21 531.191 1524.24 535.081C1531.69 539.209 1530.77 546.611 1522.21 551.404ZM1657.61 629.624C1649.53 634.141 1637.43 634.642 1630.4 630.753C1622.94 626.624 1623.86 619.222 1632.43 614.429C1640.5 609.911 1652.61 609.41 1659.63 613.3C1667.09 617.428 1666.17 624.831 1657.61 629.624Z" stroke="white" stroke-width="2" stroke-miterlimit="10"/>
<path d="M1524.23 535.079C1517.2 531.188 1505.1 531.691 1497.03 536.208C1488.46 541.001 1487.54 548.404 1495 552.532C1502.03 556.423 1514.13 555.92 1522.2 551.403C1530.77 546.61 1531.69 539.207 1524.23 535.079Z" stroke="white" stroke-width="2" stroke-miterlimit="10"/>
<path d="M1659.63 613.3C1652.61 609.409 1640.51 609.912 1632.43 614.429C1623.86 619.222 1622.94 626.625 1630.4 630.753C1637.43 634.644 1649.53 634.141 1657.61 629.624C1666.17 624.831 1667.09 617.428 1659.63 613.3Z" stroke="white" stroke-width="2" stroke-miterlimit="10"/>
<path d="M1259.8 643.548V637.95" stroke="white" stroke-width="2" stroke-miterlimit="10"/>
<path d="M1739.54 623.195V617.597" stroke="white" stroke-width="2" stroke-miterlimit="10"/>
<path d="M1499.99 787.652C1499.99 788.382 1500.43 789.08 1501.33 789.601L1718.87 915.272C1720.86 916.423 1724.34 916.278 1726.64 914.949L1977.83 769.838C1979.09 769.11 1979.73 768.181 1979.73 767.298M1904.25 767.357C1903.49 765.721 1902.02 764.218 1899.82 763.002C1892.79 759.112 1880.69 759.613 1872.62 764.131C1869.31 765.979 1867.15 768.215 1866.16 770.503M1730.76 692.282C1731.75 689.996 1733.92 687.76 1737.22 685.911C1745.29 681.394 1757.39 680.891 1764.42 684.782C1766.62 686 1768.09 687.501 1768.85 689.136" stroke="white" stroke-width="2" stroke-miterlimit="10"/>
<path d="M1730.76 692.282C1731.75 689.996 1733.91 687.76 1737.22 685.911C1745.29 681.394 1757.39 680.891 1764.42 684.782C1766.62 686 1768.09 687.501 1768.85 689.136" stroke="white" stroke-width="2" stroke-miterlimit="10"/>
<path d="M1978.39 759.751L1760.85 634.08C1758.86 632.93 1755.38 633.074 1753.08 634.403L1501.89 779.514C1499.59 780.843 1499.34 782.853 1501.33 784.004L1718.87 909.674C1720.86 910.825 1724.34 910.68 1726.64 909.352L1977.83 764.24C1980.13 762.912 1980.38 760.902 1978.38 759.751H1978.39ZM1762.39 695.509C1754.32 700.026 1742.22 700.528 1735.19 696.638C1727.73 692.51 1728.65 685.107 1737.22 680.314C1745.29 675.797 1757.39 675.295 1764.42 679.185C1771.88 683.313 1770.96 690.716 1762.39 695.509ZM1897.79 773.728C1889.72 778.245 1877.62 778.747 1870.59 774.857C1863.13 770.729 1864.05 763.326 1872.62 758.533C1880.69 754.016 1892.79 753.515 1899.82 757.404C1907.28 761.532 1906.36 768.935 1897.79 773.728Z" stroke="white" stroke-width="2" stroke-miterlimit="10"/>
<path d="M1764.42 679.183C1757.39 675.292 1745.29 675.794 1737.22 680.312C1728.65 685.105 1727.73 692.507 1735.19 696.636C1742.22 700.527 1754.32 700.024 1762.39 695.507C1770.96 690.714 1771.88 683.311 1764.42 679.183Z" stroke="white" stroke-width="2" stroke-miterlimit="10"/>
<path d="M1499.99 787.652V782.054" stroke="white" stroke-width="2" stroke-miterlimit="10"/>
<path d="M1528.67 483.234C1528.67 483.964 1529.11 484.662 1530.01 485.183L1747.55 610.854C1749.54 612.005 1753.02 611.86 1755.32 610.531L2006.51 465.42C2007.77 464.693 2008.41 463.763 2008.41 462.88M1932.93 462.939C1932.17 461.303 1930.7 459.8 1928.51 458.584C1921.48 454.694 1909.38 455.195 1901.3 459.713C1898 461.561 1895.83 463.797 1894.84 466.085M1759.44 387.864C1760.43 385.578 1762.6 383.342 1765.9 381.493C1773.98 376.976 1786.08 376.473 1793.11 380.365C1795.3 381.582 1796.77 383.083 1797.54 384.718" stroke="white" stroke-width="2" stroke-miterlimit="10"/>
<path d="M1759.44 387.864C1760.43 385.578 1762.6 383.342 1765.9 381.493C1773.98 376.976 1786.08 376.473 1793.1 380.365C1795.3 381.582 1796.77 383.083 1797.54 384.718" stroke="white" stroke-width="2" stroke-miterlimit="10"/>
<path d="M2007.07 455.333L1789.53 329.662C1787.54 328.512 1784.06 328.657 1781.76 329.985L1530.57 475.097C1528.27 476.425 1528.02 478.435 1530.01 479.586L1747.55 605.256C1749.54 606.407 1753.02 606.262 1755.32 604.934L2006.51 459.822C2008.81 458.494 2009.06 456.484 2007.07 455.333H2007.07ZM1791.08 391.091C1783 395.608 1770.9 396.11 1763.87 392.22C1756.41 388.092 1757.33 380.689 1765.9 375.896C1773.98 371.379 1786.08 370.877 1793.11 374.767C1800.57 378.895 1799.65 386.298 1791.08 391.091ZM1926.48 469.31C1918.4 473.827 1906.3 474.329 1899.27 470.439C1891.81 466.311 1892.73 458.908 1901.3 454.115C1909.37 449.598 1921.48 449.097 1928.51 452.986C1935.96 457.114 1935.04 464.517 1926.48 469.31Z" stroke="white" stroke-width="2" stroke-miterlimit="10"/>
<path d="M1793.11 374.766C1786.08 370.875 1773.97 371.378 1765.9 375.895C1757.33 380.688 1756.41 388.091 1763.87 392.219C1770.9 396.11 1783 395.607 1791.08 391.09C1799.64 386.297 1800.56 378.894 1793.11 374.766Z" stroke="white" stroke-width="2" stroke-miterlimit="10"/>
<path d="M1528.67 483.235V477.637" stroke="white" stroke-width="2" stroke-miterlimit="10"/>
<path d="M1768.86 627.338C1768.86 628.068 1769.3 628.766 1770.2 629.288L1987.74 754.958C1989.73 756.109 1993.21 755.964 1995.51 754.636L2246.7 609.524C2247.96 608.797 2248.6 607.867 2248.6 606.984M2173.12 607.044C2172.36 605.407 2170.89 603.904 2168.69 602.688C2161.66 598.798 2149.56 599.3 2141.49 603.817C2138.18 605.666 2136.02 607.902 2135.03 610.189M1999.63 531.968C2000.62 529.682 2002.79 527.446 2006.09 525.598C2014.16 521.081 2026.26 520.578 2033.29 524.469C2035.49 525.687 2036.96 527.188 2037.72 528.823" stroke="white" stroke-width="2" stroke-miterlimit="10"/>
<path d="M2247.26 599.438L2029.72 473.767C2027.73 472.616 2024.25 472.761 2021.95 474.089L1770.76 619.201C1768.46 620.529 1768.21 622.54 1770.2 623.69L1987.74 749.361C1989.73 750.512 1993.21 750.367 1995.51 749.039L2246.7 603.927C2249 602.599 2249.25 600.588 2247.25 599.438H2247.26ZM2031.27 535.195C2023.19 539.713 2011.09 540.214 2004.06 536.324C1996.6 532.196 1997.52 524.794 2006.09 520.001C2014.16 515.483 2026.26 514.982 2033.29 518.872C2040.75 523 2039.83 530.402 2031.27 535.195ZM2166.66 613.415C2158.59 617.932 2146.49 618.433 2139.46 614.544C2132 610.415 2132.92 603.013 2141.49 598.22C2149.56 593.702 2161.66 593.201 2168.69 597.091C2176.15 601.219 2175.23 608.622 2166.66 613.415Z" stroke="white" stroke-width="2" stroke-miterlimit="10"/>
<path d="M1768.86 627.338V621.74" stroke="white" stroke-width="2" stroke-miterlimit="10"/>
<path d="M986.09 797.822C986.09 798.553 986.532 799.25 987.435 799.772L1204.97 925.443C1206.96 926.593 1210.44 926.449 1212.74 925.12L1463.93 780.009C1465.19 779.281 1465.83 778.352 1465.83 777.469M1390.35 777.528C1389.59 775.891 1388.12 774.389 1385.93 773.173C1378.9 769.283 1366.8 769.784 1358.72 774.302C1355.42 776.15 1353.25 778.386 1352.26 780.673M1216.86 702.453C1217.85 700.167 1220.02 697.931 1223.32 696.082C1231.4 691.565 1243.5 691.062 1250.53 694.953C1252.72 696.171 1254.19 697.672 1254.96 699.307" stroke="white" stroke-width="2" stroke-miterlimit="10"/>
<path d="M1216.86 702.453C1217.85 700.167 1220.02 697.931 1223.32 696.082C1231.4 691.565 1243.5 691.062 1250.52 694.953C1252.72 696.171 1254.19 697.672 1254.96 699.307" stroke="white" stroke-width="2" stroke-miterlimit="10"/>
<path d="M1390.35 777.528C1389.59 775.891 1388.12 774.389 1385.93 773.172C1378.9 769.283 1366.8 769.784 1358.72 774.301C1355.42 776.15 1353.25 778.386 1352.26 780.673" stroke="white" stroke-width="2" stroke-miterlimit="10"/>
<path d="M1464.49 769.922L1246.95 644.251C1244.96 643.101 1241.48 643.245 1239.18 644.574L987.994 789.685C985.693 791.014 985.444 793.024 987.435 794.175L1204.97 919.845C1206.96 920.996 1210.44 920.851 1212.74 919.523L1463.93 774.411C1466.23 773.083 1466.48 771.073 1464.49 769.922H1464.49ZM1248.5 705.68C1240.42 710.197 1228.32 710.698 1221.29 706.809C1213.83 702.681 1214.75 695.278 1223.32 690.485C1231.4 685.968 1243.5 685.466 1250.53 689.356C1257.99 693.484 1257.07 700.887 1248.5 705.68ZM1383.9 783.899C1375.82 788.416 1363.72 788.918 1356.69 785.028C1349.23 780.9 1350.15 773.497 1358.72 768.704C1366.8 764.187 1378.9 763.685 1385.93 767.575C1393.39 771.703 1392.47 779.106 1383.9 783.899Z" stroke="white" stroke-width="2" stroke-miterlimit="10"/>
<path d="M1250.53 689.355C1243.5 685.463 1231.39 685.966 1223.32 690.484C1214.75 695.277 1213.83 702.679 1221.29 706.807C1228.32 710.699 1240.42 710.196 1248.5 705.678C1257.06 700.886 1257.98 693.483 1250.53 689.355Z" stroke="white" stroke-width="2" stroke-miterlimit="10"/>
<path d="M1385.93 767.574C1378.9 763.683 1366.8 764.186 1358.72 768.703C1350.15 773.496 1349.23 780.899 1356.69 785.027C1363.72 788.918 1375.82 788.416 1383.9 783.898C1392.46 779.105 1393.38 771.703 1385.93 767.574Z" stroke="white" stroke-width="2" stroke-miterlimit="10"/>
<path d="M1465.83 777.47V771.872" stroke="white" stroke-width="2" stroke-miterlimit="10"/>
<path d="M1704.68 914.026L1487.14 788.356C1485.15 787.205 1481.67 787.35 1479.37 788.678L1228.18 933.79C1225.88 935.118 1225.63 937.128 1227.62 938.279L1445.16 1063.95C1447.15 1065.1 1450.63 1064.96 1452.93 1063.63L1704.12 918.516C1706.42 917.187 1706.67 915.177 1704.67 914.026H1704.68ZM1488.68 849.784C1480.61 854.302 1468.51 854.803 1461.48 850.913C1454.02 846.785 1454.94 839.382 1463.51 834.589C1471.58 830.072 1483.68 829.571 1490.71 833.46C1498.17 837.589 1497.25 844.991 1488.68 849.784ZM1624.08 928.003C1616.01 932.521 1603.91 933.022 1596.88 929.132C1589.42 925.004 1590.34 917.602 1598.91 912.809C1606.98 908.291 1619.08 907.79 1626.11 911.68C1633.57 915.808 1632.65 923.211 1624.08 928.003Z" stroke="white" stroke-width="2" stroke-miterlimit="10"/>
<path d="M1791.28 325.14C1791.28 325.87 1791.72 326.568 1792.63 327.089L2010.16 452.76C2012.15 453.911 2015.63 453.766 2017.93 452.438L2269.12 307.326C2270.38 306.599 2271.02 305.669 2271.02 304.786M2195.54 304.845C2194.78 303.209 2193.31 301.706 2191.12 300.49C2184.09 296.6 2171.99 297.102 2163.91 301.619C2160.61 303.467 2158.44 305.703 2157.45 307.991M2022.05 229.77C2023.04 227.484 2025.21 225.248 2028.51 223.4C2036.59 218.882 2048.69 218.379 2055.72 222.271C2057.91 223.488 2059.39 224.99 2060.15 226.625" stroke="white" stroke-width="2" stroke-miterlimit="10"/>
<path d="M2269.68 297.24L2052.14 171.57C2050.15 170.419 2046.67 170.564 2044.37 171.892L1793.18 317.004C1790.88 318.332 1790.63 320.342 1792.63 321.493L2010.16 447.164C2012.15 448.314 2015.63 448.17 2017.93 446.841L2269.12 301.73C2271.42 300.401 2271.67 298.391 2269.68 297.24H2269.68ZM2053.69 232.998C2045.61 237.515 2033.51 238.017 2026.48 234.127C2019.02 229.999 2019.94 222.596 2028.51 217.803C2036.59 213.286 2048.69 212.785 2055.72 216.674C2063.18 220.802 2062.26 228.205 2053.69 232.998ZM2189.09 311.217C2181.01 315.735 2168.91 316.236 2161.88 312.346C2154.42 308.218 2155.34 300.815 2163.91 296.023C2171.99 291.505 2184.09 291.004 2191.12 294.894C2198.58 299.022 2197.66 306.424 2189.09 311.217Z" stroke="white" stroke-width="2" stroke-miterlimit="10"/>
<path d="M1791.28 325.142V319.544" stroke="white" stroke-width="2" stroke-miterlimit="10"/>
</g>
</svg>
