<svg width="1800" height="2323" viewBox="0 0 1800 2323" fill="none" xmlns="http://www.w3.org/2000/svg">
    <path d="M1536.98 803.526C1536.98 804.456 1536.42 805.345 1535.27 806.01L1258.12 966.114C1255.58 967.58 1251.15 967.396 1248.22 965.704L928.206 780.831C926.604 779.904 925.784 778.72 925.784 777.595M1021.95 777.671C1022.91 775.586 1024.79 773.671 1027.59 772.122C1036.54 767.166 1051.96 767.805 1062.24 773.56C1066.46 775.915 1069.22 778.764 1070.47 781.678M1242.97 682.024C1241.71 679.112 1238.95 676.263 1234.75 673.908C1224.46 668.153 1209.04 667.513 1200.09 672.47C1197.29 674.022 1195.41 675.934 1194.44 678.017" stroke="white" stroke-width="2" stroke-miterlimit="10"/>
    <path d="M1242.97 682.024C1241.71 679.112 1238.95 676.263 1234.75 673.908C1224.46 668.153 1209.04 667.513 1200.09 672.47C1197.29 674.022 1195.41 675.934 1194.44 678.017" stroke="white" stroke-width="2" stroke-miterlimit="10"/>
    <path d="M1021.95 777.67C1022.91 775.585 1024.79 773.671 1027.59 772.122C1036.54 767.166 1051.96 767.805 1062.24 773.56C1066.46 775.915 1069.22 778.764 1070.47 781.678" stroke="white" stroke-width="2" stroke-miterlimit="10"/>
    <path d="M927.496 767.98L1204.64 607.875C1207.18 606.409 1211.61 606.593 1214.54 608.285L1534.55 793.158C1537.48 794.851 1537.8 797.412 1535.27 798.878L1258.12 958.982C1255.58 960.449 1251.15 960.264 1248.22 958.572L928.208 773.699C925.278 772.007 924.961 769.446 927.498 767.98H927.496ZM1202.67 686.135C1212.96 691.89 1228.37 692.529 1237.33 687.573C1246.83 682.314 1245.66 672.883 1234.74 666.777C1224.46 661.022 1209.04 660.383 1200.08 665.338C1190.58 670.597 1191.75 680.029 1202.67 686.135ZM1030.17 785.786C1040.46 791.541 1055.87 792.18 1064.83 787.225C1074.33 781.966 1073.16 772.534 1062.24 766.428C1051.96 760.673 1036.54 760.034 1027.59 764.99C1018.08 770.249 1019.25 779.68 1030.17 785.786Z" stroke="white" stroke-width="2" stroke-miterlimit="10"/>
    <path d="M1200.09 665.336C1209.04 660.379 1224.46 661.02 1234.75 666.775C1245.66 672.881 1246.83 682.312 1237.33 687.571C1228.38 692.529 1212.96 691.888 1202.67 686.133C1191.76 680.027 1190.58 670.596 1200.09 665.336Z" stroke="white" stroke-width="2" stroke-miterlimit="10"/>
    <path d="M1027.59 764.99C1036.54 760.032 1051.96 760.673 1062.24 766.428C1073.16 772.534 1074.33 781.966 1064.83 787.225C1055.87 792.182 1040.46 791.541 1030.17 785.786C1019.26 779.68 1018.08 770.249 1027.59 764.99Z" stroke="white" stroke-width="2" stroke-miterlimit="10"/>
    <path d="M1536.98 803.526V796.394" stroke="white" stroke-width="2" stroke-miterlimit="10"/>
    <path d="M925.784 777.595V770.463" stroke="white" stroke-width="2" stroke-miterlimit="10"/>
    <path d="M2228.23 1204.31C2228.23 1205.24 2227.66 1206.13 2226.51 1206.8L1949.37 1366.9C1946.83 1368.37 1942.4 1368.18 1939.47 1366.49L1619.46 1181.62C1617.85 1180.69 1617.03 1179.51 1617.03 1178.38M1713.19 1178.46C1714.16 1176.37 1716.04 1174.46 1718.84 1172.91C1727.79 1167.95 1743.21 1168.59 1753.49 1174.35C1757.7 1176.7 1760.46 1179.55 1761.72 1182.46M1934.22 1082.81C1932.96 1079.9 1930.2 1077.05 1925.99 1074.7C1915.71 1068.94 1900.29 1068.3 1891.34 1073.26C1888.53 1074.81 1886.66 1076.72 1885.69 1078.8" stroke="white" stroke-width="2" stroke-miterlimit="10"/>
    <path d="M1713.19 1178.46C1714.16 1176.37 1716.04 1174.46 1718.84 1172.91C1727.79 1167.95 1743.21 1168.59 1753.49 1174.35C1757.7 1176.7 1760.46 1179.55 1761.72 1182.46" stroke="white" stroke-width="2" stroke-miterlimit="10"/>
    <path d="M1618.75 1168.77L1895.89 1008.66C1898.43 1007.2 1902.86 1007.38 1905.79 1009.07L2225.8 1193.95C2228.73 1195.64 2229.05 1198.2 2226.51 1199.66L1949.37 1359.77C1946.83 1361.24 1942.4 1361.05 1939.47 1359.36L1619.46 1174.49C1616.53 1172.79 1616.21 1170.23 1618.75 1168.77H1618.75ZM1893.92 1086.92C1904.21 1092.68 1919.62 1093.32 1928.58 1088.36C1938.08 1083.1 1936.91 1073.67 1925.99 1067.56C1915.71 1061.81 1900.29 1061.17 1891.33 1066.13C1881.83 1071.38 1883 1080.82 1893.92 1086.92ZM1721.42 1186.57C1731.71 1192.33 1747.12 1192.97 1756.08 1188.01C1765.58 1182.75 1764.41 1173.32 1753.49 1167.22C1743.21 1161.46 1727.79 1160.82 1718.84 1165.78C1709.33 1171.04 1710.5 1180.47 1721.42 1186.57Z" stroke="white" stroke-width="2" stroke-miterlimit="10"/>
    <path d="M1718.84 1165.78C1727.79 1160.82 1743.21 1161.46 1753.49 1167.22C1764.41 1173.32 1765.58 1182.75 1756.08 1188.01C1747.12 1192.97 1731.71 1192.33 1721.42 1186.57C1710.51 1180.47 1709.33 1171.04 1718.84 1165.78Z" stroke="white" stroke-width="2" stroke-miterlimit="10"/>
    <path d="M1617.03 1178.38V1171.25" stroke="white" stroke-width="2" stroke-miterlimit="10"/>
    <path d="M1194.44 599.285C1194.44 600.216 1193.87 601.104 1192.72 601.769L915.58 761.874C913.042 763.34 908.611 763.155 905.68 761.463L585.663 576.59C584.061 575.664 583.241 574.48 583.241 573.355M679.402 573.43C680.37 571.345 682.243 569.431 685.043 567.881C693.998 562.926 709.415 563.565 719.701 569.32C723.912 571.674 726.672 574.523 727.931 577.437M900.43 477.784C899.171 474.872 896.41 472.023 892.202 469.668C881.915 463.913 866.5 463.272 857.544 468.23C854.743 469.781 852.869 471.693 851.899 473.776" stroke="white" stroke-width="2" stroke-miterlimit="10"/>
    <path d="M900.43 477.784C899.171 474.872 896.41 472.023 892.202 469.668C881.915 463.913 866.5 463.272 857.544 468.23C854.743 469.781 852.869 471.693 851.899 473.776" stroke="white" stroke-width="2" stroke-miterlimit="10"/>
    <path d="M679.402 573.43C680.37 571.345 682.244 569.431 685.043 567.881C693.999 562.926 709.416 563.564 719.701 569.319C723.913 571.674 726.672 574.523 727.931 577.437" stroke="white" stroke-width="2" stroke-miterlimit="10"/>
    <path d="M584.953 563.739L862.096 403.634C864.634 402.168 869.065 402.353 871.995 404.045L1192.01 588.918C1194.94 590.61 1195.26 593.171 1192.72 594.637L915.58 754.742C913.042 756.208 908.611 756.024 905.68 754.331L585.665 569.458C582.735 567.766 582.418 565.205 584.955 563.739H584.953ZM860.127 481.894C870.413 487.649 885.83 488.288 894.786 483.333C904.289 478.073 903.117 468.642 892.2 462.536C881.914 456.781 866.498 456.142 857.542 461.098C848.039 466.357 849.211 475.788 860.127 481.894ZM687.628 581.546C697.914 587.301 713.331 587.94 722.287 582.984C731.789 577.725 730.618 568.294 719.701 562.188C709.415 556.433 693.998 555.794 685.043 560.749C675.54 566.009 676.712 575.44 687.628 581.546Z" stroke="white" stroke-width="2" stroke-miterlimit="10"/>
    <path d="M857.544 461.096C866.5 456.138 881.916 456.779 892.202 462.534C903.117 468.64 904.291 478.072 894.788 483.331C885.832 488.288 870.415 487.647 860.129 481.892C849.215 475.786 848.041 466.355 857.544 461.096Z" stroke="white" stroke-width="2" stroke-miterlimit="10"/>
    <path d="M685.043 560.749C693.999 555.792 709.414 556.433 719.702 562.188C730.616 568.294 731.79 577.725 722.287 582.984C713.331 587.942 697.914 587.301 687.628 581.546C676.714 575.44 675.54 566.009 685.043 560.749Z" stroke="white" stroke-width="2" stroke-miterlimit="10"/>
    <path d="M1194.44 599.285V592.153" stroke="white" stroke-width="2" stroke-miterlimit="10"/>
    <path d="M583.241 573.355V566.223" stroke="white" stroke-width="2" stroke-miterlimit="10"/>
    <path d="M851.003 400.641C851.003 401.571 850.44 402.46 849.29 403.124L572.148 563.229C569.61 564.695 565.179 564.511 562.249 562.818L242.231 377.946C240.629 377.019 239.809 375.835 239.809 374.71M335.97 374.785C336.938 372.7 338.812 370.786 341.611 369.237C350.567 364.281 365.984 364.92 376.269 370.675C380.481 373.03 383.24 375.878 384.499 378.793M556.998 279.139C555.74 276.227 552.978 273.378 548.771 271.023C538.483 265.268 523.068 264.627 514.112 269.585C511.311 271.136 509.437 273.049 508.468 275.132" stroke="white" stroke-width="2" stroke-miterlimit="10"/>
    <path d="M556.999 279.139C555.74 276.227 552.978 273.378 548.771 271.023C538.483 265.268 523.068 264.627 514.112 269.585C511.311 271.136 509.437 273.049 508.468 275.132" stroke="white" stroke-width="2" stroke-miterlimit="10"/>
    <path d="M335.97 374.785C336.938 372.7 338.812 370.786 341.611 369.236C350.567 364.281 365.984 364.92 376.269 370.675C380.481 373.03 383.24 375.878 384.499 378.793" stroke="white" stroke-width="2" stroke-miterlimit="10"/>
    <path d="M241.522 365.094L518.664 204.99C521.202 203.523 525.633 203.708 528.564 205.4L848.579 390.273C851.509 391.965 851.826 394.526 849.29 395.992L572.148 556.097C569.61 557.563 565.179 557.379 562.248 555.687L242.233 370.814C239.303 369.121 238.986 366.56 241.524 365.094H241.522ZM516.695 283.25C526.981 289.005 542.398 289.643 551.354 284.688C560.857 279.429 559.685 269.998 548.769 263.891C538.483 258.136 523.066 257.497 514.11 262.453C504.607 267.712 505.779 277.143 516.695 283.25ZM344.196 382.901C354.482 388.656 369.899 389.295 378.855 384.339C388.358 379.08 387.186 369.649 376.269 363.543C365.983 357.788 350.567 357.149 341.611 362.105C332.108 367.364 333.28 376.795 344.196 382.901Z" stroke="white" stroke-width="2" stroke-miterlimit="10"/>
    <path d="M514.112 262.451C523.068 257.494 538.485 258.134 548.771 263.889C559.685 269.996 560.859 279.427 551.356 284.686C542.4 289.643 526.983 289.003 516.697 283.248C505.783 277.141 504.609 267.71 514.112 262.451Z" stroke="white" stroke-width="2" stroke-miterlimit="10"/>
    <path d="M341.611 362.105C350.567 357.147 365.982 357.788 376.27 363.543C387.184 369.649 388.358 379.08 378.855 384.339C369.9 389.297 354.483 388.656 344.197 382.901C333.282 376.795 332.109 367.364 341.611 362.105Z" stroke="white" stroke-width="2" stroke-miterlimit="10"/>
    <path d="M851.003 400.641V393.509" stroke="white" stroke-width="2" stroke-miterlimit="10"/>
    <path d="M239.809 374.71V367.578" stroke="white" stroke-width="2" stroke-miterlimit="10"/>
    <path d="M1883.19 996.641C1883.19 997.571 1882.63 998.46 1881.48 999.124L1604.34 1159.23C1601.8 1160.7 1597.37 1160.51 1594.44 1158.82L1274.42 973.946C1272.82 973.019 1272 971.835 1272 970.71M1368.16 970.785C1369.13 968.7 1371 966.786 1373.8 965.237C1382.76 960.281 1398.17 960.92 1408.46 966.675C1412.67 969.03 1415.43 971.878 1416.69 974.793M1589.19 875.139C1587.93 872.227 1585.17 869.378 1580.96 867.023C1570.67 861.268 1555.26 860.627 1546.3 865.585C1543.5 867.136 1541.63 869.049 1540.66 871.132" stroke="white" stroke-width="2" stroke-miterlimit="10"/>
    <path d="M1589.19 875.139C1587.93 872.227 1585.17 869.378 1580.96 867.023C1570.67 861.268 1555.26 860.627 1546.3 865.585C1543.5 867.136 1541.63 869.049 1540.66 871.132" stroke="white" stroke-width="2" stroke-miterlimit="10"/>
    <path d="M1368.16 970.785C1369.13 968.7 1371 966.786 1373.8 965.236C1382.76 960.281 1398.18 960.92 1408.46 966.675C1412.67 969.03 1415.43 971.878 1416.69 974.793" stroke="white" stroke-width="2" stroke-miterlimit="10"/>
    <path d="M1273.71 961.094L1550.86 800.99C1553.39 799.523 1557.82 799.708 1560.75 801.4L1880.77 986.273C1883.7 987.965 1884.02 990.526 1881.48 991.992L1604.34 1152.1C1601.8 1153.56 1597.37 1153.38 1594.44 1151.69L1274.42 966.814C1271.49 965.121 1271.18 962.56 1273.71 961.094H1273.71ZM1548.89 879.25C1559.17 885.005 1574.59 885.643 1583.55 880.688C1593.05 875.429 1591.88 865.998 1580.96 859.891C1570.67 854.136 1555.26 853.497 1546.3 858.453C1536.8 863.712 1537.97 873.143 1548.89 879.25ZM1376.39 978.901C1386.67 984.656 1402.09 985.295 1411.05 980.339C1420.55 975.08 1419.38 965.649 1408.46 959.543C1398.17 953.788 1382.76 953.149 1373.8 958.105C1364.3 963.364 1365.47 972.795 1376.39 978.901Z" stroke="white" stroke-width="2" stroke-miterlimit="10"/>
    <path d="M1546.3 858.451C1555.26 853.494 1570.68 854.134 1580.96 859.889C1591.88 865.996 1593.05 875.427 1583.55 880.686C1574.59 885.643 1559.17 885.003 1548.89 879.248C1537.97 873.141 1536.8 863.71 1546.3 858.451Z" stroke="white" stroke-width="2" stroke-miterlimit="10"/>
    <path d="M1373.8 958.105C1382.76 953.147 1398.17 953.788 1408.46 959.543C1419.38 965.649 1420.55 975.08 1411.05 980.339C1402.09 985.297 1386.67 984.656 1376.39 978.901C1365.47 972.795 1364.3 963.364 1373.8 958.105Z" stroke="white" stroke-width="2" stroke-miterlimit="10"/>
    <path d="M1272 970.71V963.578" stroke="white" stroke-width="2" stroke-miterlimit="10"/>
    <path d="M1234.3 976.291C1234.3 977.221 1233.74 978.11 1232.59 978.775L955.449 1138.88C952.911 1140.35 948.48 1140.16 945.549 1138.47L625.532 953.596C623.93 952.669 623.109 951.485 623.109 950.36M719.271 950.436C720.239 948.351 722.112 946.436 724.912 944.887C733.867 939.931 749.284 940.57 759.57 946.325C763.781 948.68 766.541 951.529 767.8 954.443M940.299 854.789C939.04 851.877 936.278 849.028 932.071 846.674C921.783 840.918 906.368 840.278 897.413 845.235C894.611 846.787 892.738 848.699 891.768 850.782" stroke="white" stroke-width="2" stroke-miterlimit="10"/>
    <path d="M940.3 854.789C939.041 851.877 936.279 849.028 932.072 846.674C921.784 840.918 906.369 840.278 897.413 845.235C894.612 846.787 892.738 848.699 891.769 850.782" stroke="white" stroke-width="2" stroke-miterlimit="10"/>
    <path d="M719.271 950.436C720.239 948.351 722.112 946.436 724.912 944.887C733.867 939.931 749.284 940.57 759.57 946.325C763.781 948.68 766.541 951.529 767.8 954.443" stroke="white" stroke-width="2" stroke-miterlimit="10"/>
    <path d="M624.822 940.745L901.965 780.64C904.503 779.174 908.934 779.358 911.864 781.051L1231.88 965.923C1234.81 967.616 1235.13 970.177 1232.59 971.643L955.449 1131.75C952.911 1133.21 948.48 1133.03 945.549 1131.34L625.534 946.464C622.604 944.772 622.287 942.211 624.824 940.745H624.822ZM899.996 858.9C910.282 864.655 925.699 865.294 934.655 860.338C944.157 855.079 942.986 845.648 932.069 839.542C921.783 833.787 906.366 833.148 897.411 838.103C887.908 843.363 889.08 852.794 899.996 858.9ZM727.497 958.552C737.783 964.307 753.2 964.945 762.156 959.99C771.658 954.731 770.487 945.3 759.57 939.193C749.284 933.438 733.867 932.799 724.912 937.755C715.409 943.014 716.581 952.445 727.497 958.552Z" stroke="white" stroke-width="2" stroke-miterlimit="10"/>
    <path d="M897.413 838.102C906.368 833.144 921.785 833.785 932.071 839.54C942.986 845.646 944.159 855.077 934.657 860.336C925.701 865.294 910.284 864.653 899.998 858.898C889.084 852.792 887.91 843.361 897.413 838.102Z" stroke="white" stroke-width="2" stroke-miterlimit="10"/>
    <path d="M724.912 937.755C733.867 932.797 749.282 933.438 759.57 939.193C770.485 945.3 771.658 954.731 762.156 959.99C753.2 964.947 737.783 964.307 727.497 958.552C716.583 952.445 715.409 943.014 724.912 937.755Z" stroke="white" stroke-width="2" stroke-miterlimit="10"/>
    <path d="M1234.3 976.291V969.159" stroke="white" stroke-width="2" stroke-miterlimit="10"/>
    <path d="M623.109 950.36V943.228" stroke="white" stroke-width="2" stroke-miterlimit="10"/>
    <path d="M928.304 1159.88C928.304 1160.81 927.741 1161.7 926.591 1162.36L649.449 1322.47C646.911 1323.94 642.48 1323.75 639.549 1322.06L319.532 1137.19C317.93 1136.26 317.109 1135.08 317.109 1133.95M413.271 1134.03C414.239 1131.94 416.112 1130.03 418.912 1128.48C427.867 1123.52 443.284 1124.16 453.57 1129.92C457.781 1132.27 460.541 1135.12 461.8 1138.03M634.299 1038.38C633.04 1035.47 630.278 1032.62 626.071 1030.26C615.783 1024.51 600.368 1023.87 591.413 1028.83C588.611 1030.38 586.738 1032.29 585.768 1034.37" stroke="white" stroke-width="2" stroke-miterlimit="10"/>
    <path d="M634.299 1038.38C633.04 1035.47 630.279 1032.62 626.072 1030.26C615.784 1024.51 600.369 1023.87 591.413 1028.83C588.612 1030.38 586.738 1032.29 585.768 1034.37" stroke="white" stroke-width="2" stroke-miterlimit="10"/>
    <path d="M413.271 1134.03C414.239 1131.94 416.112 1130.03 418.912 1128.48C427.867 1123.52 443.284 1124.16 453.57 1129.92C457.781 1132.27 460.541 1135.12 461.8 1138.03" stroke="white" stroke-width="2" stroke-miterlimit="10"/>
    <path d="M318.822 1124.33L595.965 964.23C598.503 962.764 602.934 962.948 605.864 964.641L925.879 1149.51C928.81 1151.21 929.127 1153.77 926.591 1155.23L649.449 1315.34C646.911 1316.8 642.48 1316.62 639.549 1314.93L319.534 1130.05C316.604 1128.36 316.287 1125.8 318.824 1124.33H318.822ZM593.996 1042.49C604.282 1048.25 619.699 1048.88 628.655 1043.93C638.157 1038.67 636.986 1029.24 626.069 1023.13C615.783 1017.38 600.366 1016.74 591.411 1021.69C581.908 1026.95 583.08 1036.38 593.996 1042.49ZM421.497 1142.14C431.783 1147.9 447.2 1148.54 456.156 1143.58C465.658 1138.32 464.487 1128.89 453.57 1122.78C443.284 1117.03 427.867 1116.39 418.912 1121.35C409.409 1126.6 410.581 1136.04 421.497 1142.14Z" stroke="white" stroke-width="2" stroke-miterlimit="10"/>
    <path d="M591.413 1021.69C600.368 1016.73 615.785 1017.37 626.071 1023.13C636.986 1029.24 638.159 1038.67 628.657 1043.93C619.701 1048.88 604.284 1048.24 593.998 1042.49C583.084 1036.38 581.91 1026.95 591.413 1021.69Z" stroke="white" stroke-width="2" stroke-miterlimit="10"/>
    <path d="M418.912 1121.35C427.867 1116.39 443.282 1117.03 453.57 1122.78C464.485 1128.89 465.658 1138.32 456.156 1143.58C447.2 1148.54 431.783 1147.9 421.497 1142.14C410.583 1136.04 409.409 1126.6 418.912 1121.35Z" stroke="white" stroke-width="2" stroke-miterlimit="10"/>
    <path d="M928.304 1159.88V1152.75" stroke="white" stroke-width="2" stroke-miterlimit="10"/>
    <path d="M317.109 1133.95V1126.82" stroke="white" stroke-width="2" stroke-miterlimit="10"/>
    <path d="M1925.55 1377.08C1925.55 1378.01 1924.99 1378.9 1923.84 1379.56L1646.7 1539.67C1644.16 1541.13 1639.73 1540.95 1636.8 1539.26L1316.78 1354.38C1315.18 1353.46 1314.36 1352.27 1314.36 1351.15M1410.52 1351.22C1411.49 1349.14 1413.36 1347.22 1416.16 1345.67C1425.12 1340.72 1440.53 1341.36 1450.82 1347.11C1455.03 1349.47 1457.79 1352.32 1459.05 1355.23M1631.55 1255.58C1630.29 1252.66 1627.53 1249.81 1623.32 1247.46C1613.03 1241.71 1597.62 1241.06 1588.66 1246.02C1585.86 1247.57 1583.99 1249.49 1583.02 1251.57" stroke="white" stroke-width="2" stroke-miterlimit="10"/>
    <path d="M1631.55 1255.58C1630.29 1252.66 1627.53 1249.81 1623.32 1247.46C1613.03 1241.71 1597.62 1241.06 1588.66 1246.02C1585.86 1247.57 1583.99 1249.49 1583.02 1251.57" stroke="white" stroke-width="2" stroke-miterlimit="10"/>
    <path d="M1410.52 1351.22C1411.49 1349.14 1413.36 1347.22 1416.16 1345.67C1425.12 1340.72 1440.53 1341.36 1450.82 1347.11C1455.03 1349.47 1457.79 1352.32 1459.05 1355.23" stroke="white" stroke-width="2" stroke-miterlimit="10"/>
    <path d="M1316.07 1341.53L1593.21 1181.43C1595.75 1179.96 1600.18 1180.14 1603.11 1181.84L1923.13 1366.71C1926.06 1368.4 1926.38 1370.96 1923.84 1372.43L1646.7 1532.53C1644.16 1534 1639.73 1533.82 1636.8 1532.12L1316.78 1347.25C1313.85 1345.56 1313.54 1343 1316.07 1341.53H1316.07ZM1591.25 1259.69C1601.53 1265.44 1616.95 1266.08 1625.9 1261.12C1635.41 1255.87 1634.23 1246.43 1623.32 1240.33C1613.03 1234.57 1597.62 1233.93 1588.66 1238.89C1579.16 1244.15 1580.33 1253.58 1591.25 1259.69ZM1418.75 1359.34C1429.03 1365.09 1444.45 1365.73 1453.4 1360.78C1462.91 1355.52 1461.74 1346.09 1450.82 1339.98C1440.53 1334.22 1425.12 1333.59 1416.16 1338.54C1406.66 1343.8 1407.83 1353.23 1418.75 1359.34Z" stroke="white" stroke-width="2" stroke-miterlimit="10"/>
    <path d="M1588.66 1238.89C1597.62 1233.93 1613.03 1234.57 1623.32 1240.33C1634.23 1246.43 1635.41 1255.86 1625.91 1261.12C1616.95 1266.08 1601.53 1265.44 1591.25 1259.68C1580.33 1253.58 1579.16 1244.15 1588.66 1238.89Z" stroke="white" stroke-width="2" stroke-miterlimit="10"/>
    <path d="M1416.16 1338.54C1425.12 1333.58 1440.53 1334.22 1450.82 1339.98C1461.73 1346.09 1462.91 1355.52 1453.4 1360.78C1444.45 1365.73 1429.03 1365.09 1418.75 1359.34C1407.83 1353.23 1406.66 1343.8 1416.16 1338.54Z" stroke="white" stroke-width="2" stroke-miterlimit="10"/>
    <path d="M1314.36 1351.15V1344.02" stroke="white" stroke-width="2" stroke-miterlimit="10"/>
    <path d="M1619.55 1560.67C1619.55 1561.6 1618.99 1562.49 1617.84 1563.15L1340.7 1723.26C1338.16 1724.72 1333.73 1724.54 1330.8 1722.85L1010.78 1537.97C1009.18 1537.05 1008.36 1535.86 1008.36 1534.74M1104.52 1534.81C1105.49 1532.73 1107.36 1530.81 1110.16 1529.26C1119.12 1524.31 1134.53 1524.95 1144.82 1530.7C1149.03 1533.06 1151.79 1535.91 1153.05 1538.82M1325.55 1439.17C1324.29 1436.25 1321.53 1433.41 1317.32 1431.05C1307.03 1425.3 1291.62 1424.65 1282.66 1429.61C1279.86 1431.16 1277.99 1433.08 1277.02 1435.16" stroke="white" stroke-width="2" stroke-miterlimit="10"/>
    <path d="M1325.55 1439.17C1324.29 1436.25 1321.53 1433.41 1317.32 1431.05C1307.03 1425.3 1291.62 1424.65 1282.66 1429.61C1279.86 1431.16 1277.99 1433.08 1277.02 1435.16" stroke="white" stroke-width="2" stroke-miterlimit="10"/>
    <path d="M1104.52 1534.81C1105.49 1532.73 1107.36 1530.81 1110.16 1529.26C1119.12 1524.31 1134.53 1524.95 1144.82 1530.7C1149.03 1533.06 1151.79 1535.91 1153.05 1538.82" stroke="white" stroke-width="2" stroke-miterlimit="10"/>
    <path d="M1010.07 1525.12L1287.21 1365.02C1289.75 1363.55 1294.18 1363.74 1297.11 1365.43L1617.13 1550.3C1620.06 1551.99 1620.38 1554.55 1617.84 1556.02L1340.7 1716.12C1338.16 1717.59 1333.73 1717.41 1330.8 1715.71L1010.78 1530.84C1007.85 1529.15 1007.54 1526.59 1010.07 1525.12H1010.07ZM1285.25 1443.28C1295.53 1449.03 1310.95 1449.67 1319.9 1444.72C1329.41 1439.46 1328.23 1430.02 1317.32 1423.92C1307.03 1418.16 1291.62 1417.52 1282.66 1422.48C1273.16 1427.74 1274.33 1437.17 1285.25 1443.28ZM1112.75 1542.93C1123.03 1548.68 1138.45 1549.32 1147.4 1544.37C1156.91 1539.11 1155.74 1529.68 1144.82 1523.57C1134.53 1517.82 1119.12 1517.18 1110.16 1522.13C1100.66 1527.39 1101.83 1536.82 1112.75 1542.93Z" stroke="white" stroke-width="2" stroke-miterlimit="10"/>
    <path d="M1282.66 1422.48C1291.62 1417.52 1307.03 1418.16 1317.32 1423.92C1328.23 1430.02 1329.41 1439.45 1319.91 1444.71C1310.95 1449.67 1295.53 1449.03 1285.25 1443.27C1274.33 1437.17 1273.16 1427.74 1282.66 1422.48Z" stroke="white" stroke-width="2" stroke-miterlimit="10"/>
    <path d="M1110.16 1522.13C1119.12 1517.17 1134.53 1517.82 1144.82 1523.57C1155.73 1529.68 1156.91 1539.11 1147.4 1544.37C1138.45 1549.32 1123.03 1548.68 1112.75 1542.93C1101.83 1536.82 1100.66 1527.39 1110.16 1522.13Z" stroke="white" stroke-width="2" stroke-miterlimit="10"/>
    <path d="M1619.55 1560.67V1553.54" stroke="white" stroke-width="2" stroke-miterlimit="10"/>
    <path d="M1008.36 1534.74V1527.61" stroke="white" stroke-width="2" stroke-miterlimit="10"/>
    <path d="M2270.19 1576.42C2270.19 1577.35 2269.63 1578.24 2268.48 1578.91L1991.34 1739.01C1988.8 1740.48 1984.37 1740.29 1981.44 1738.6L1661.42 1553.73C1659.82 1552.8 1659 1551.62 1659 1550.49M1755.16 1550.57C1756.13 1548.48 1758 1546.57 1760.8 1545.02C1769.76 1540.06 1785.17 1540.7 1795.46 1546.46C1799.67 1548.81 1802.43 1551.66 1803.69 1554.57M1976.19 1454.92C1974.93 1452.01 1972.17 1449.16 1967.96 1446.8C1957.67 1441.05 1942.26 1440.41 1933.3 1445.37C1930.5 1446.92 1928.63 1448.83 1927.66 1450.91" stroke="white" stroke-width="2" stroke-miterlimit="10"/>
    <path d="M1755.16 1550.57C1756.13 1548.48 1758 1546.57 1760.8 1545.02C1769.76 1540.06 1785.18 1540.7 1795.46 1546.46C1799.67 1548.81 1802.43 1551.66 1803.69 1554.57" stroke="white" stroke-width="2" stroke-miterlimit="10"/>
    <path d="M1660.71 1540.88L1937.86 1380.77C1940.39 1379.3 1944.82 1379.49 1947.75 1381.18L2267.77 1566.05C2270.7 1567.75 2271.02 1570.31 2268.48 1571.77L1991.34 1731.88C1988.8 1733.34 1984.37 1733.16 1981.44 1731.47L1661.42 1546.6C1658.49 1544.9 1658.18 1542.34 1660.71 1540.88H1660.71ZM1935.89 1459.03C1946.17 1464.79 1961.59 1465.42 1970.55 1460.47C1980.05 1455.21 1978.88 1445.78 1967.96 1439.67C1957.67 1433.92 1942.26 1433.28 1933.3 1438.23C1923.8 1443.49 1924.97 1452.92 1935.89 1459.03ZM1763.39 1558.68C1773.67 1564.44 1789.09 1565.08 1798.05 1560.12C1807.55 1554.86 1806.38 1545.43 1795.46 1539.32C1785.17 1533.57 1769.76 1532.93 1760.8 1537.89C1751.3 1543.15 1752.47 1552.58 1763.39 1558.68Z" stroke="white" stroke-width="2" stroke-miterlimit="10"/>
    <path d="M1760.8 1537.89C1769.76 1532.93 1785.17 1533.57 1795.46 1539.32C1806.38 1545.43 1807.55 1554.86 1798.05 1560.12C1789.09 1565.08 1773.67 1564.44 1763.39 1558.68C1752.47 1552.58 1751.3 1543.15 1760.8 1537.89Z" stroke="white" stroke-width="2" stroke-miterlimit="10"/>
    <path d="M1659 1550.49V1543.36" stroke="white" stroke-width="2" stroke-miterlimit="10"/>
    <path d="M1964.19 1760.01C1964.19 1760.94 1963.63 1761.83 1962.48 1762.5L1685.34 1922.6C1682.8 1924.07 1678.37 1923.88 1675.44 1922.19L1355.42 1737.32C1353.82 1736.39 1353 1735.21 1353 1734.08M1449.16 1734.16C1450.13 1732.07 1452 1730.16 1454.8 1728.61C1463.76 1723.65 1479.17 1724.29 1489.46 1730.05C1493.67 1732.4 1496.43 1735.25 1497.69 1738.16M1670.19 1638.51C1668.93 1635.6 1666.17 1632.75 1661.96 1630.39C1651.67 1624.64 1636.26 1624 1627.3 1628.96C1624.5 1630.51 1622.63 1632.42 1621.66 1634.5" stroke="white" stroke-width="2" stroke-miterlimit="10"/>
    <path d="M1670.19 1638.51C1668.93 1635.6 1666.17 1632.75 1661.96 1630.39C1651.67 1624.64 1636.26 1624 1627.3 1628.96C1624.5 1630.51 1622.63 1632.42 1621.66 1634.5" stroke="white" stroke-width="2" stroke-miterlimit="10"/>
    <path d="M1449.16 1734.16C1450.13 1732.07 1452 1730.16 1454.8 1728.61C1463.76 1723.65 1479.18 1724.29 1489.46 1730.05C1493.67 1732.4 1496.43 1735.25 1497.69 1738.16" stroke="white" stroke-width="2" stroke-miterlimit="10"/>
    <path d="M1354.71 1724.47L1631.86 1564.36C1634.39 1562.9 1638.82 1563.08 1641.75 1564.77L1961.77 1749.64C1964.7 1751.34 1965.02 1753.9 1962.48 1755.36L1685.34 1915.47C1682.8 1916.93 1678.37 1916.75 1675.44 1915.06L1355.42 1730.19C1352.49 1728.49 1352.18 1725.93 1354.71 1724.47H1354.71ZM1629.89 1642.62C1640.17 1648.38 1655.59 1649.01 1664.55 1644.06C1674.05 1638.8 1672.88 1629.37 1661.96 1623.26C1651.67 1617.51 1636.26 1616.87 1627.3 1621.82C1617.8 1627.08 1618.97 1636.51 1629.89 1642.62ZM1457.39 1742.27C1467.67 1748.03 1483.09 1748.67 1492.05 1743.71C1501.55 1738.45 1500.38 1729.02 1489.46 1722.91C1479.17 1717.16 1463.76 1716.52 1454.8 1721.48C1445.3 1726.74 1446.47 1736.17 1457.39 1742.27Z" stroke="white" stroke-width="2" stroke-miterlimit="10"/>
    <path d="M1627.3 1621.82C1636.26 1616.87 1651.68 1617.51 1661.96 1623.26C1672.88 1629.37 1674.05 1638.8 1664.55 1644.06C1655.59 1649.02 1640.17 1648.37 1629.89 1642.62C1618.97 1636.51 1617.8 1627.08 1627.3 1621.82Z" stroke="white" stroke-width="2" stroke-miterlimit="10"/>
    <path d="M1454.8 1721.48C1463.76 1716.52 1479.17 1717.16 1489.46 1722.91C1500.38 1729.02 1501.55 1738.45 1492.05 1743.71C1483.09 1748.67 1467.67 1748.03 1457.39 1742.27C1446.47 1736.17 1445.3 1726.74 1454.8 1721.48Z" stroke="white" stroke-width="2" stroke-miterlimit="10"/>
    <path d="M1353 1734.08V1726.95" stroke="white" stroke-width="2" stroke-miterlimit="10"/>
    <path d="M2310.19 1956.23C2310.19 1957.16 2309.63 1958.05 2308.48 1958.71L2031.34 2118.82C2028.8 2120.29 2024.37 2120.1 2021.44 2118.41L1701.42 1933.54C1699.82 1932.61 1699 1931.43 1699 1930.3M1795.16 1930.38C1796.13 1928.29 1798 1926.38 1800.8 1924.83C1809.76 1919.87 1825.17 1920.51 1835.46 1926.27C1839.67 1928.62 1842.43 1931.47 1843.69 1934.38M2016.19 1834.73C2014.93 1831.82 2012.17 1828.97 2007.96 1826.61C1997.67 1820.86 1982.26 1820.22 1973.3 1825.18C1970.5 1826.73 1968.63 1828.64 1967.66 1830.72" stroke="white" stroke-width="2" stroke-miterlimit="10"/>
    <path d="M1795.16 1930.38C1796.13 1928.29 1798 1926.38 1800.8 1924.83C1809.76 1919.87 1825.18 1920.51 1835.46 1926.27C1839.67 1928.62 1842.43 1931.47 1843.69 1934.38" stroke="white" stroke-width="2" stroke-miterlimit="10"/>
    <path d="M1700.71 1920.68L1977.86 1760.58C1980.39 1759.11 1984.82 1759.3 1987.75 1760.99L2307.77 1945.86C2310.7 1947.56 2311.02 1950.12 2308.48 1951.58L2031.34 2111.69C2028.8 2113.15 2024.37 2112.97 2021.44 2111.28L1701.42 1926.4C1698.49 1924.71 1698.18 1922.15 1700.71 1920.68H1700.71ZM1975.89 1838.84C1986.17 1844.59 2001.59 1845.23 2010.55 1840.28C2020.05 1835.02 2018.88 1825.59 2007.96 1819.48C1997.67 1813.73 1982.26 1813.09 1973.3 1818.04C1963.8 1823.3 1964.97 1832.73 1975.89 1838.84ZM1803.39 1938.49C1813.67 1944.25 1829.09 1944.89 1838.05 1939.93C1847.55 1934.67 1846.38 1925.24 1835.46 1919.13C1825.17 1913.38 1809.76 1912.74 1800.8 1917.7C1791.3 1922.95 1792.47 1932.39 1803.39 1938.49Z" stroke="white" stroke-width="2" stroke-miterlimit="10"/>
    <path d="M1800.8 1917.7C1809.76 1912.74 1825.17 1913.38 1835.46 1919.13C1846.38 1925.24 1847.55 1934.67 1838.05 1939.93C1829.09 1944.89 1813.67 1944.25 1803.39 1938.49C1792.47 1932.39 1791.3 1922.95 1800.8 1917.7Z" stroke="white" stroke-width="2" stroke-miterlimit="10"/>
    <path d="M1699 1930.3V1923.17" stroke="white" stroke-width="2" stroke-miterlimit="10"/>
    <path d="M891.761 772.05C891.761 772.981 891.198 773.869 890.048 774.534L612.906 934.639C610.368 936.105 605.937 935.92 603.006 934.228L282.989 749.355C281.387 748.429 280.566 747.244 280.566 746.12M376.728 746.195C377.696 744.11 379.569 742.196 382.369 740.646C391.324 735.691 406.741 736.329 417.027 742.084C421.238 744.439 423.998 747.288 425.257 750.202M597.756 650.549C596.497 647.636 593.736 644.788 589.528 642.433C579.24 636.678 563.826 636.037 554.87 640.995C552.068 642.546 550.195 644.458 549.225 646.541" stroke="white" stroke-width="2" stroke-miterlimit="10"/>
    <path d="M597.757 650.549C596.498 647.636 593.736 644.788 589.529 642.433C579.241 636.678 563.826 636.037 554.87 640.995C552.069 642.546 550.195 644.458 549.226 646.541" stroke="white" stroke-width="2" stroke-miterlimit="10"/>
    <path d="M376.728 746.195C377.696 744.11 379.569 742.195 382.369 740.646C391.325 735.691 406.741 736.329 417.027 742.084C421.239 744.439 423.998 747.288 425.257 750.202" stroke="white" stroke-width="2" stroke-miterlimit="10"/>
    <path d="M282.279 736.504L559.422 576.399C561.96 574.933 566.391 575.118 569.321 576.81L889.336 761.683C892.267 763.375 892.584 765.936 890.048 767.402L612.906 927.507C610.368 928.973 605.937 928.788 603.006 927.096L282.991 742.223C280.061 740.531 279.744 737.97 282.281 736.504H282.279ZM557.453 654.659C567.739 660.414 583.156 661.053 592.112 656.097C601.614 650.838 600.443 641.407 589.526 635.301C579.24 629.546 563.823 628.907 554.868 633.863C545.365 639.122 546.537 648.553 557.453 654.659ZM384.954 754.311C395.24 760.066 410.657 760.705 419.613 755.749C429.115 750.49 427.944 741.059 417.027 734.953C406.741 729.198 391.324 728.559 382.369 733.514C372.866 738.773 374.038 748.205 384.954 754.311Z" stroke="white" stroke-width="2" stroke-miterlimit="10"/>
    <path d="M554.87 633.861C563.825 628.903 579.242 629.544 589.528 635.299C600.443 641.405 601.616 650.836 592.114 656.096C583.158 661.053 567.741 660.412 557.455 654.657C546.541 648.551 545.367 639.12 554.87 633.861Z" stroke="white" stroke-width="2" stroke-miterlimit="10"/>
    <path d="M382.369 733.514C391.325 728.557 406.74 729.198 417.027 734.953C427.942 741.059 429.116 750.49 419.613 755.749C410.657 760.707 395.24 760.066 384.954 754.311C374.04 748.205 372.866 738.773 382.369 733.514Z" stroke="white" stroke-width="2" stroke-miterlimit="10"/>
    <path d="M891.761 772.05V764.918" stroke="white" stroke-width="2" stroke-miterlimit="10"/>
    <path d="M280.567 746.119V738.988" stroke="white" stroke-width="2" stroke-miterlimit="10"/>
    <path d="M585.761 955.641C585.761 956.571 585.198 957.46 584.048 958.124L306.906 1118.23C304.368 1119.7 299.937 1119.51 297.006 1117.82L-23.0108 932.946C-24.6127 932.019 -25.4335 930.835 -25.4335 929.71M70.7282 929.785C71.6958 927.7 73.5693 925.786 76.3688 924.237C85.3244 919.281 100.741 919.92 111.027 925.675C115.238 928.03 117.998 930.878 119.257 933.793M291.756 834.139C290.497 831.227 287.736 828.378 283.528 826.023C273.24 820.268 257.826 819.627 248.87 824.585C246.068 826.136 244.195 828.049 243.225 830.132" stroke="white" stroke-width="2" stroke-miterlimit="10"/>
    <path d="M291.757 834.139C290.498 831.227 287.736 828.378 283.529 826.023C273.241 820.268 257.826 819.627 248.87 824.585C246.069 826.136 244.195 828.049 243.226 830.132" stroke="white" stroke-width="2" stroke-miterlimit="10"/>
    <path d="M70.7284 929.785C71.6959 927.7 73.5695 925.786 76.369 924.236C85.3245 919.281 100.741 919.92 111.027 925.675C115.239 928.03 117.998 930.878 119.257 933.793" stroke="white" stroke-width="2" stroke-miterlimit="10"/>
    <path d="M-23.7206 920.094L253.422 759.99C255.96 758.523 260.391 758.708 263.321 760.4L583.336 945.273C586.267 946.965 586.584 949.526 584.048 950.992L306.906 1111.1C304.368 1112.56 299.937 1112.38 297.006 1110.69L-23.0088 925.814C-25.9392 924.121 -26.2564 921.56 -23.7186 920.094H-23.7206ZM251.453 838.25C261.739 844.005 277.156 844.643 286.112 839.688C295.614 834.429 294.443 824.998 283.526 818.891C273.24 813.136 257.823 812.497 248.868 817.453C239.365 822.712 240.537 832.143 251.453 838.25ZM78.9541 937.901C89.24 943.656 104.657 944.295 113.613 939.339C123.115 934.08 121.944 924.649 111.027 918.543C100.741 912.788 85.3243 912.149 76.3688 917.105C66.866 922.364 68.0377 931.795 78.9541 937.901Z" stroke="white" stroke-width="2" stroke-miterlimit="10"/>
    <path d="M248.87 817.451C257.825 812.494 273.242 813.134 283.528 818.889C294.443 824.996 295.616 834.427 286.114 839.686C277.158 844.643 261.741 844.003 251.455 838.248C240.541 832.141 239.367 822.71 248.87 817.451Z" stroke="white" stroke-width="2" stroke-miterlimit="10"/>
    <path d="M76.369 917.105C85.3246 912.147 100.74 912.788 111.027 918.543C121.942 924.649 123.116 934.08 113.613 939.339C104.657 944.297 89.2403 943.656 78.9544 937.901C68.04 931.795 66.8662 922.364 76.369 917.105Z" stroke="white" stroke-width="2" stroke-miterlimit="10"/>
    <path d="M585.761 955.64V948.509" stroke="white" stroke-width="2" stroke-miterlimit="10"/>
    <path d="M1583.01 1172.84C1583.01 1173.77 1582.45 1174.66 1581.3 1175.32L1304.15 1335.43C1301.62 1336.89 1297.19 1336.71 1294.26 1335.02L974.238 1150.14C972.636 1149.22 971.815 1148.03 971.815 1146.91M1067.98 1146.98C1068.94 1144.9 1070.82 1142.98 1073.62 1141.43C1082.57 1136.48 1097.99 1137.12 1108.28 1142.87C1112.49 1145.23 1115.25 1148.08 1116.51 1150.99M1289.01 1051.34C1287.75 1048.42 1284.98 1045.57 1280.78 1043.22C1270.49 1037.46 1255.07 1036.82 1246.12 1041.78C1243.32 1043.33 1241.44 1045.25 1240.47 1047.33" stroke="white" stroke-width="2" stroke-miterlimit="10"/>
    <path d="M1289.01 1051.34C1287.75 1048.42 1284.98 1045.57 1280.78 1043.22C1270.49 1037.46 1255.07 1036.82 1246.12 1041.78C1243.32 1043.33 1241.44 1045.25 1240.47 1047.33" stroke="white" stroke-width="2" stroke-miterlimit="10"/>
    <path d="M1067.98 1146.98C1068.94 1144.9 1070.82 1142.98 1073.62 1141.43C1082.57 1136.48 1097.99 1137.12 1108.28 1142.87C1112.49 1145.23 1115.25 1148.08 1116.51 1150.99" stroke="white" stroke-width="2" stroke-miterlimit="10"/>
    <path d="M973.528 1137.29L1250.67 977.186C1253.21 975.72 1257.64 975.905 1260.57 977.597L1580.59 1162.47C1583.52 1164.16 1583.83 1166.72 1581.3 1168.19L1304.15 1328.29C1301.62 1329.76 1297.19 1329.58 1294.26 1327.88L974.24 1143.01C971.31 1141.32 970.993 1138.76 973.53 1137.29H973.528ZM1248.7 1055.45C1258.99 1061.2 1274.41 1061.84 1283.36 1056.88C1292.86 1051.63 1291.69 1042.19 1280.78 1036.09C1270.49 1030.33 1255.07 1029.69 1246.12 1034.65C1236.61 1039.91 1237.79 1049.34 1248.7 1055.45ZM1076.2 1155.1C1086.49 1160.85 1101.91 1161.49 1110.86 1156.54C1120.36 1151.28 1119.19 1141.85 1108.28 1135.74C1097.99 1129.98 1082.57 1129.35 1073.62 1134.3C1064.12 1139.56 1065.29 1148.99 1076.2 1155.1Z" stroke="white" stroke-width="2" stroke-miterlimit="10"/>
    <path d="M1246.12 1034.65C1255.07 1029.69 1270.49 1030.33 1280.78 1036.09C1291.69 1042.19 1292.87 1051.62 1283.36 1056.88C1274.41 1061.84 1258.99 1061.2 1248.7 1055.44C1237.79 1049.34 1236.62 1039.91 1246.12 1034.65Z" stroke="white" stroke-width="2" stroke-miterlimit="10"/>
    <path d="M1073.62 1134.3C1082.57 1129.34 1097.99 1129.98 1108.28 1135.74C1119.19 1141.85 1120.36 1151.28 1110.86 1156.54C1101.91 1161.49 1086.49 1160.85 1076.2 1155.1C1065.29 1148.99 1064.12 1139.56 1073.62 1134.3Z" stroke="white" stroke-width="2" stroke-miterlimit="10"/>
    <path d="M1583.01 1172.84V1165.71" stroke="white" stroke-width="2" stroke-miterlimit="10"/>
    <path d="M971.816 1146.91V1139.77" stroke="white" stroke-width="2" stroke-miterlimit="10"/>
    <path d="M1277.01 1356.43C1277.01 1357.36 1276.45 1358.25 1275.3 1358.91L998.155 1519.02C995.617 1520.48 991.186 1520.3 988.255 1518.61L668.238 1333.73C666.636 1332.81 665.815 1331.62 665.815 1330.5M761.977 1330.57C762.945 1328.49 764.818 1326.57 767.618 1325.02C776.573 1320.07 791.99 1320.71 802.276 1326.46C806.487 1328.82 809.247 1331.67 810.506 1334.58M983.005 1234.93C981.746 1232.01 978.985 1229.17 974.777 1226.81C964.49 1221.06 949.075 1220.41 940.119 1225.37C937.318 1226.92 935.444 1228.84 934.474 1230.92" stroke="white" stroke-width="2" stroke-miterlimit="10"/>
    <path d="M983.005 1234.93C981.746 1232.01 978.985 1229.17 974.777 1226.81C964.49 1221.06 949.075 1220.41 940.119 1225.37C937.318 1226.92 935.444 1228.84 934.474 1230.92" stroke="white" stroke-width="2" stroke-miterlimit="10"/>
    <path d="M761.977 1330.57C762.945 1328.49 764.819 1326.57 767.618 1325.02C776.574 1320.07 791.991 1320.71 802.276 1326.46C806.488 1328.82 809.247 1331.67 810.506 1334.58" stroke="white" stroke-width="2" stroke-miterlimit="10"/>
    <path d="M667.528 1320.88L944.671 1160.78C947.209 1159.31 951.64 1159.5 954.57 1161.19L1274.59 1346.06C1277.52 1347.75 1277.83 1350.31 1275.3 1351.78L998.155 1511.88C995.617 1513.35 991.186 1513.17 988.255 1511.47L668.24 1326.6C665.31 1324.91 664.993 1322.35 667.53 1320.88H667.528ZM942.702 1239.04C952.988 1244.79 968.405 1245.43 977.361 1240.47C986.863 1235.22 985.692 1225.78 974.775 1219.68C964.489 1213.92 949.072 1213.28 940.117 1218.24C930.614 1223.5 931.786 1232.93 942.702 1239.04ZM770.203 1338.69C780.489 1344.44 795.906 1345.08 804.862 1340.13C814.364 1334.87 813.193 1325.44 802.276 1319.33C791.99 1313.57 776.573 1312.94 767.618 1317.89C758.115 1323.15 759.287 1332.58 770.203 1338.69Z" stroke="white" stroke-width="2" stroke-miterlimit="10"/>
    <path d="M940.119 1218.24C949.074 1213.28 964.491 1213.92 974.777 1219.68C985.692 1225.78 986.865 1235.21 977.363 1240.47C968.407 1245.43 952.99 1244.79 942.704 1239.03C931.79 1232.93 930.616 1223.5 940.119 1218.24Z" stroke="white" stroke-width="2" stroke-miterlimit="10"/>
    <path d="M767.618 1317.89C776.573 1312.93 791.988 1313.57 802.276 1319.33C813.191 1325.44 814.365 1334.87 804.862 1340.13C795.906 1345.08 780.489 1344.44 770.203 1338.69C759.289 1332.58 758.115 1323.15 767.618 1317.89Z" stroke="white" stroke-width="2" stroke-miterlimit="10"/>
    <path d="M1277.01 1356.43V1349.3" stroke="white" stroke-width="2" stroke-miterlimit="10"/>
    <path d="M665.816 1330.5V1323.36" stroke="white" stroke-width="2" stroke-miterlimit="10"/>
    <path d="M557.195 570.641C557.195 571.571 556.632 572.46 555.482 573.124L278.339 733.229C275.801 734.695 271.37 734.511 268.44 732.818L-51.5772 547.946C-53.1791 547.019 -53.9999 545.835 -53.9999 544.71M42.1618 544.785C43.1293 542.7 45.0029 540.786 47.8024 539.237C56.758 534.281 72.1749 534.92 82.4609 540.675C86.672 543.03 89.4318 545.878 90.6908 548.793M263.19 449.139C261.931 446.227 259.169 443.378 254.962 441.023C244.674 435.268 229.259 434.627 220.304 439.585C217.502 441.136 215.628 443.049 214.659 445.132" stroke="white" stroke-width="2" stroke-miterlimit="10"/>
    <path d="M263.19 449.139C261.931 446.227 259.169 443.378 254.962 441.023C244.674 435.268 229.259 434.627 220.304 439.585C217.502 441.136 215.629 443.049 214.659 445.132" stroke="white" stroke-width="2" stroke-miterlimit="10"/>
    <path d="M42.162 544.785C43.1295 542.7 45.0031 540.786 47.8026 539.236C56.7581 534.281 72.1751 534.92 82.461 540.675C86.6721 543.03 89.4319 545.878 90.6909 548.793" stroke="white" stroke-width="2" stroke-miterlimit="10"/>
    <path d="M-52.287 535.094L224.856 374.99C227.393 373.523 231.825 373.708 234.755 375.4L554.77 560.273C557.7 561.965 558.018 564.526 555.482 565.992L278.339 726.097C275.801 727.563 271.37 727.379 268.44 725.687L-51.5752 540.814C-54.5056 539.121 -54.8228 536.56 -52.285 535.094H-52.287ZM222.887 453.25C233.173 459.005 248.59 459.643 257.545 454.688C267.048 449.429 265.876 439.998 254.96 433.891C244.674 428.136 229.257 427.497 220.301 432.453C210.799 437.712 211.97 447.143 222.887 453.25ZM50.3877 552.901C60.6736 558.656 76.0906 559.295 85.0462 554.339C94.5489 549.08 93.3772 539.649 82.4608 533.543C72.1749 527.788 56.7579 527.149 47.8024 532.105C38.2996 537.364 39.4713 546.795 50.3877 552.901Z" stroke="white" stroke-width="2" stroke-miterlimit="10"/>
    <path d="M220.303 432.451C229.259 427.494 244.676 428.134 254.962 433.889C265.876 439.996 267.05 449.427 257.547 454.686C248.592 459.643 233.175 459.003 222.889 453.248C211.974 447.141 210.801 437.71 220.303 432.451Z" stroke="white" stroke-width="2" stroke-miterlimit="10"/>
    <path d="M47.8026 532.105C56.7582 527.147 72.1732 527.788 82.4611 533.543C93.3755 539.649 94.5492 549.08 85.0464 554.339C76.0909 559.297 60.6739 558.656 50.388 552.901C39.4736 546.795 38.2998 537.364 47.8026 532.105Z" stroke="white" stroke-width="2" stroke-miterlimit="10"/>
    <path d="M557.195 570.64V563.509" stroke="white" stroke-width="2" stroke-miterlimit="10"/>
    <path d="M502.195 197.641C502.195 198.571 501.632 199.46 500.482 200.124L223.339 360.229C220.801 361.695 216.37 361.511 213.44 359.818L-106.577 174.946C-108.179 174.019 -109 172.835 -109 171.71M-12.8382 171.785C-11.8707 169.7 -9.99707 167.786 -7.19759 166.237C1.75797 161.281 17.1749 161.92 27.4609 167.675C31.672 170.03 34.4318 172.878 35.6908 175.793M208.19 76.139C206.931 73.2268 204.169 70.378 199.962 68.0232C189.674 62.2681 174.259 61.6273 165.304 66.5849C162.502 68.1363 160.628 70.0487 159.659 72.1317" stroke="white" stroke-width="2" stroke-miterlimit="10"/>
    <path d="M208.19 76.139C206.931 73.2268 204.169 70.378 199.962 68.0232C189.674 62.2681 174.259 61.6273 165.304 66.5849C162.502 68.1363 160.629 70.0487 159.659 72.1317" stroke="white" stroke-width="2" stroke-miterlimit="10"/>
    <path d="M-12.8382 171.785C-11.8706 169.7 -9.99705 167.786 -7.19757 166.236C1.75799 161.281 17.175 161.92 27.4609 167.675C31.672 170.03 34.4318 172.878 35.6908 175.793" stroke="white" stroke-width="2" stroke-miterlimit="10"/>
    <path d="M-107.287 162.094L169.856 1.98952C172.393 0.52347 176.825 0.707966 179.755 2.40017L499.77 187.273C502.7 188.965 503.018 191.526 500.482 192.992L223.339 353.097C220.801 354.563 216.37 354.379 213.44 352.687L-106.575 167.814C-109.506 166.121 -109.823 163.56 -107.285 162.094H-107.287ZM167.887 80.2495C178.173 86.0046 193.59 86.6434 202.545 81.6878C212.048 76.4287 210.876 66.9976 199.96 60.8913C189.674 55.1363 174.257 54.4975 165.301 59.4531C155.799 64.7122 156.97 74.1433 167.887 80.2495ZM-4.61228 179.901C5.67363 185.656 21.0906 186.295 30.0462 181.339C39.5489 176.08 38.3772 166.649 27.4608 160.543C17.1749 154.788 1.75792 154.149 -7.19764 159.105C-16.7004 164.364 -15.5287 173.795 -4.61228 179.901Z" stroke="white" stroke-width="2" stroke-miterlimit="10"/>
    <path d="M165.303 59.4511C174.259 54.4935 189.676 55.1343 199.962 60.8894C210.876 66.9956 212.05 76.4267 202.547 81.6859C193.592 86.6434 178.175 86.0027 167.889 80.2476C156.974 74.1414 155.801 64.7102 165.303 59.4511Z" stroke="white" stroke-width="2" stroke-miterlimit="10"/>
    <path d="M-7.19727 159.105C1.75829 154.147 17.1733 154.788 27.4612 160.543C38.3756 166.649 39.5493 176.08 30.0465 181.339C21.091 186.297 5.674 185.656 -4.6119 179.901C-15.5263 173.795 -16.7 164.364 -7.19727 159.105Z" stroke="white" stroke-width="2" stroke-miterlimit="10"/>
    <path d="M502.195 197.641V190.509" stroke="white" stroke-width="2" stroke-miterlimit="10"/>
</svg>
